<?xml version="1.0" encoding="utf-8"?>
<!-- Generator: Adobe Illustrator 22.0.0, SVG Export Plug-In . SVG Version: 6.00 Build 0)  -->
<svg version="1.1" xmlns="http://www.w3.org/2000/svg" xmlns:xlink="http://www.w3.org/1999/xlink" x="0px" y="0px"
	 viewBox="0 0 227.7 199.4" style="enable-background:new 0 0 227.7 199.4;" xml:space="preserve">
<style type="text/css">
	.st0{opacity:0.33;fill:#00AEEF;}
	.st1{fill:#F4F4F4;}
	.st2{fill:#EAEAEA;}
	.st3{fill:#EDEDED;}
	.st4{fill:#BDBDBD;}
	.st5{opacity:0.57;fill:#00AEEF;}
	.st6{fill:#E0E0E0;}
</style>
<g id="OBJECTS">
	<ellipse class="st0" cx="113.8" cy="186.9" rx="100.9" ry="6"/>
	<g>
		<g>
			<path class="st1" d="M15.4,131.1v20.6c0,2,1.6,3.6,3.6,3.6h189.7c2,0,3.6-1.6,3.6-3.6v-20.6H15.4z"/>
			<path class="st2" d="M212.3,17.1c0-2-1.6-3.6-3.6-3.6H19c-2,0-3.6,1.6-3.6,3.6v114h196.8V17.1z"/>
			<rect x="80.4" y="155.3" class="st3" width="67.7" height="20.8"/>
			<rect x="64.1" y="176.1" class="st2" width="99.3" height="9.7"/>
			<rect x="80.4" y="155.3" class="st4" width="67.7" height="7.5"/>
			<rect x="25.6" y="23.7" class="st5" width="176.5" height="96.9"/>
		</g>
		<g>
			<polygon class="st6" points="95.1,42.7 82.8,55 70.5,42.7 65.6,47.6 77.9,59.9 65.6,72.2 70.5,77.1 82.8,64.8 95.1,77.1 
				100,72.2 87.7,59.9 100,47.6 			"/>
			<polygon class="st6" points="162,47.6 157.1,42.7 144.8,55 132.5,42.7 127.6,47.6 139.9,59.9 127.6,72.2 132.5,77.1 144.8,64.8 
				157.1,77.1 162,72.2 149.7,59.9 			"/>
		</g>
		<g>
			<path class="st6" d="M140.1,107.1c-26-17.9-52.3-0.2-52.6,0l-3.4-4.9c0.3-0.2,30-20.3,59.4,0L140.1,107.1z"/>
		</g>
	</g>
</g>
<g id="DESIGNED_BY_FREEPIK">
</g>
</svg>
