<svg xmlns="http://www.w3.org/2000/svg" xmlns:xlink="http://www.w3.org/1999/xlink" width="340.271" height="92.87" viewBox="0 0 340.271 92.87"><defs><path id="a" d="M0 0h340.271v92.87H0z"/></defs><clipPath id="b"><use xlink:href="#a" overflow="visible"/></clipPath><path clip-path="url(#b)" fill="#0D395C" d="M103.6 31.467h.592c2.246 0 3.269-.916 3.269-4.67 0-3.449-.934-4.472-3.251-4.472h-.61c-.575 0-.755.323-.773.7-.072 1.275-.054 6.34 0 7.652.017.522.323.79.773.79m7.274-4.652c.054 4.67-2.568 6.304-6.071 6.304 0 0-2.353-.018-3.502-.018-1.114 0-3.449.036-3.449.036v-1.67h.629c.826 0 1.059-.198 1.095-.97.054-1.132.054-6.179 0-7.131-.054-.736-.341-1.023-.988-1.023h-.736v-1.635c.287 0 2.335.036 3.485.036 1.095 0 3.071-.018 3.394-.018 4.311.001 6.088 1.904 6.143 6.089M120.109 23.277a223.533 223.533 0 0 0-1.796 4.957c1.113.018 2.568.018 3.628 0a195 195 0 0 0-1.832-4.957m2.209 6.035a117.29 117.29 0 0 0-4.365-.018l-.161.485c-.359 1.132-.162 1.688.808 1.688h.683c0 .252-.018 1.419-.018 1.671 0 0-1.832-.036-2.856-.036s-2.856.036-2.856.036v-1.671h.467c1.042 0 1.473-.449 1.922-1.58.233-.593 3.053-8.119 3.484-9.286 0 0 1.024.054 1.599.054.593 0 1.598-.054 1.598-.054.737 2.101 2.982 7.795 3.611 9.304.52 1.221.934 1.562 1.634 1.562h.557v1.671s-2.353-.036-3.682-.036-3.7.036-3.7.036c0-.252.018-1.419 0-1.671h.718c.898 0 1.042-.592.701-1.724l-.144-.431zM138.438 22.343h-.736c-.719 0-1.042.269-1.078 1.06-.054.97-.054 5.945 0 7.13.036.755.395.934 1.024.934h.97c1.616 0 2.37-.521 2.478-3.574a23.68 23.68 0 0 0 1.599 0c-.072 1.275-.126 4.005-.09 5.281-1.114-.072-2.82-.072-3.682-.072h-4.131c-.737 0-2.353.018-3.108.036v-1.671h.737c.826 0 .97-.305 1.006-1.041.054-1.132.054-6.125 0-7.023-.054-.701-.288-1.06-.934-1.06h-.773v-1.635s2.174.054 3.377.054c1.204 0 3.143-.054 3.359-.054-.018.252-.018 1.383-.018 1.635M152.591 22.343h-.736c-.719 0-1.042.269-1.078 1.06-.054.97-.054 5.945 0 7.13.036.755.395.934 1.024.934h.97c1.616 0 2.37-.521 2.478-3.574a23.68 23.68 0 0 0 1.599 0c-.072 1.275-.126 4.005-.09 5.281-1.114-.072-2.82-.072-3.682-.072h-4.131c-.737 0-2.353.018-3.108.036v-1.671h.737c.826 0 .97-.305 1.006-1.041.054-1.132.054-6.125 0-7.023-.054-.701-.288-1.06-.934-1.06h-.773v-1.635s2.174.054 3.377.054c1.204 0 3.143-.054 3.359-.054-.018.252-.018 1.383-.018 1.635M166.547 23.277a218.576 218.576 0 0 0-1.796 4.957c1.113.018 2.568.018 3.628 0a195 195 0 0 0-1.832-4.957m2.209 6.035a117.29 117.29 0 0 0-4.365-.018l-.161.485c-.359 1.132-.162 1.688.808 1.688h.683c0 .252-.018 1.419-.018 1.671 0 0-1.832-.036-2.856-.036s-2.856.036-2.856.036v-1.671h.467c1.042 0 1.473-.449 1.922-1.58.233-.593 3.053-8.119 3.484-9.286 0 0 1.024.054 1.599.054.593 0 1.598-.054 1.598-.054.737 2.101 2.982 7.795 3.611 9.304.52 1.221.934 1.562 1.634 1.562h.557v1.671s-2.353-.036-3.682-.036-3.7.036-3.7.036c0-.252.018-1.419 0-1.671h.718c.898 0 1.042-.592.701-1.724l-.144-.431zM181.084 23.421c0 .952.79 1.275 3.105 1.491 3.234.305 5.083 1.437 5.083 4.221 0 2.748-1.866 4.292-5.1 4.292-1.544 0-2.514-.323-3.502-.862-.737-.413-1.006 0-1.096.647a17.259 17.259 0 0 0-1.365 0c.162-1.239.234-3.018.162-4.203a15.92 15.92 0 0 0 1.311 0c.575 1.922 2.047 2.856 4.454 2.856 1.779 0 2.713-.593 2.713-1.599 0-1.059-1.023-1.437-3.503-1.688-3.269-.287-4.76-1.652-4.76-3.97 0-2.352 1.545-4.22 4.742-4.22 1.509 0 2.479.395 3.036.682.861.431.97.108 1.076-.467.145.018 1.15.018 1.295 0-.198 1.024-.252 2.748-.162 3.844-.181 0-1.114-.018-1.293 0-.539-1.725-1.796-2.479-3.664-2.479-1.814 0-2.532.647-2.532 1.455M209.444 20.601c.216.018 1.257.018 1.474 0-.145.862-.342 3.359-.307 4.67a21.513 21.513 0 0 0-2.155 0c-.197-1.832-.736-3.161-2.747-3.161-1.977 0-2.856 1.185-2.856 4.777 0 4.006 1.204 4.814 2.766 4.814 1.832 0 2.892-1.239 2.946-3.43.503.035 1.814.035 2.335 0-.09 3.574-1.562 5.154-5.586 5.154-3.826 0-6.18-1.724-6.18-6.538 0-4.508 2.552-6.537 6.036-6.537 1.652 0 2.568.449 3.16.79.81.467 1.024.377 1.114-.539M223.302 26.887c0-3.574-.665-4.85-2.677-4.85-1.904 0-2.658 1.419-2.658 4.868 0 3.556.593 4.867 2.658 4.867 2.029 0 2.677-1.454 2.677-4.885m-8.999.018c0-4.401 2.551-6.52 6.322-6.52 4.201 0 6.322 2.083 6.322 6.502 0 4.508-2.693 6.538-6.322 6.538-4.133 0-6.322-2.066-6.322-6.52M231.219 23.475c-.036-.808-.307-1.132-.988-1.132h-.539v-1.634s2.12.054 3.304.054c1.188 0 3.091-.054 3.378-.054v1.634h-.683c-.701 0-1.077.288-1.095 1.132-.02 1.239-.02 4.167 0 4.778.036 2.424.88 3.287 2.603 3.287 1.707 0 2.57-.809 2.606-3.287.018-1.383.053-3.215 0-4.778-.02-.772-.397-1.132-1.042-1.132h-.665v-1.634s1.688.054 2.676.054 2.443-.054 2.731-.054v1.634h-.558c-.666 0-.97.378-.988 1.132-.054 1.742 0 3.377 0 4.778 0 3.664-1.85 5.262-5.19 5.262-3.809 0-5.569-1.562-5.569-5.226-.001-.611.055-3.485.019-4.814M257.035 28.396c.019-1.437.019-3.987-.019-4.903-.035-.881-.413-1.15-1.059-1.15h-.935c.019-.251.019-1.383 0-1.634.161 0 1.814.053 2.82.053 1.023 0 2.82-.053 2.82-.053-.02.251-.02 1.383 0 1.634h-.79c-.648 0-1.007.287-1.062 1.15-.053 1.023-.053 7.094 0 9.609a32.256 32.256 0 0 0-2.639 0 477.451 477.451 0 0 0-5.802-8.729c-.02 2.047 0 5.226.035 6.053.036.7.307 1.041 1.133 1.041h.896s-.035.863 0 1.671c0 0-1.812-.036-2.838-.036-1.042 0-2.855.036-2.855.036.036-.826 0-1.671 0-1.671h.72c.826 0 1.112-.359 1.148-1.041.055-1.096.071-6.125 0-7.023-.055-.701-.395-1.06-1.078-1.06h-.771c.054-.79 0-1.634 0-1.634 1.222.035 3.879.035 5.119 0 1.152 1.814 3.667 5.55 5.157 7.687M271.539 22.415c-.036 2.119-.036 7.095.018 7.903.036.683.27 1.149 1.097 1.149h.771v1.671s-2.209-.036-3.467-.036c-1.239 0-3.466.036-3.466.036v-1.671h.734c.81 0 1.098-.449 1.151-1.149.054-.826.054-5.784 0-7.903h-.952c-1.168 0-1.545.647-1.599 1.688l-.072 1.581a28.688 28.688 0 0 0-1.76 0c.054-1.204 0-3.826-.09-5.029.699.054 1.455.072 3.269.072h5.586c1.851 0 2.605-.036 3.251-.072-.089 1.203-.143 3.825-.089 5.029a28.137 28.137 0 0 0-1.743 0l-.073-1.581c-.052-1.041-.43-1.688-1.597-1.688h-.969zM287.989 28.827v1.652c0 .683.144.988 1.06.988h.88s-.035.826 0 1.671c0 0-2.389-.036-3.735-.036-1.348 0-3.754.036-3.754.036a25.86 25.86 0 0 0 0-1.671h.916c.916 0 .987-.323.987-.988v-1.634c-.7-1.401-2.19-4.311-2.802-5.371-.448-.79-1.023-1.131-2.084-1.131h-.287c.036-.808 0-1.635 0-1.635s2.443.054 3.826.054c1.365 0 3.808-.054 3.808-.054s-.035.827 0 1.635h-.61c-.845 0-1.078.521-.647 1.509.485 1.131 1.348 2.658 1.797 3.376.466-.88 1.222-2.388 1.652-3.376.377-.845.413-1.509-.557-1.509h-.485c.036-.826 0-1.635 0-1.635s1.814.054 2.838.054c1.006 0 2.802-.054 2.802-.054s-.036.791 0 1.635h-.377c-1.581 0-1.994.449-2.515 1.329-.611 1.042-2.03 3.826-2.713 5.155"/><path clip-path="url(#b)" fill="#00AEEF" d="M107.447 57.09c1.038.048 2.549.048 2.643.048 5.287-.048 6.986-2.407 6.986-7.506 0-5.002-1.699-7.222-6.514-7.222h-1.274c-1.228 0-1.652.755-1.7 1.747-.141 2.076-.141 7.881-.141 12.933m.048 3.258c0 2.219.047 4.059.094 4.908.095 2.124 1.039 2.832 2.691 2.832h2.313c-.047.378-.047 3.305 0 3.683 0 0-5.523-.095-8.638-.095-3.116 0-8.638.095-8.638.095.047-.378.047-3.352 0-3.73h1.888c2.077 0 2.974-.755 3.068-2.784.142-2.502.142-17.653 0-20.203-.094-1.793-.708-2.313-2.36-2.313h-2.596c.047-.708.047-2.973 0-3.634.755 0 8.638.142 9.535.142 2.171 0 4.72-.048 6.702-.048 7.742 0 13.406 2.88 13.406 10.337 0 7.458-5.57 10.904-13.406 10.904a91.947 91.947 0 0 1-4.059-.094M141.9 54.445h3.21c4.956 0 6.655-1.745 6.655-6.135 0-4.201-1.557-5.9-5.9-5.9h-1.983c-1.368 0-1.793.708-1.84 1.888-.095 1.652-.142 5.852-.142 10.147m18.645 14.352c1.841 0 2.124-2.738 1.322-6.75.236 0 2.124-.189 2.265-.189 1.322 5.57.284 10.857-6.183 10.857-6.373 0-7.741-3.399-8.072-9.158-.33-5.286-2.407-6.325-5.664-6.325H141.9c0 3.635.047 6.986.142 8.025.141 2.029 1.038 2.832 2.69 2.832h1.935c-.047.378-.047 3.304.001 3.682 0 0-7.6-.095-8.45-.095-3.068 0-8.449.095-8.449.095.047-.378.047-3.353 0-3.729h1.982c1.983 0 2.88-.755 2.974-2.784.142-2.502.142-17.513 0-20.062-.094-1.841-.708-2.455-2.407-2.455h-2.549c.047-.755.047-2.926 0-3.634.755 0 7.411.094 8.827.094 2.171 0 6.231-.047 8.921-.047 7.883 0 12.273 2.974 12.273 8.732 0 4.673-3.399 7.836-7.977 8.354 3.965.851 5.333 3.115 5.805 6.608.661 5.051 1.511 5.949 2.927 5.949M192.18 55.344c0-9.913-2.219-13.594-8.118-13.594-5.664 0-8.119 4.201-8.119 13.642 0 9.771 1.935 13.594 8.119 13.594 6.042-.001 8.118-4.342 8.118-13.642m-24.404.048c0-11.376 6.704-17.183 16.286-17.183 10.762 0 16.236 5.806 16.236 17.135 0 11.471-6.891 17.229-16.236 17.229-10.668 0-16.286-5.852-16.286-17.181M213.251 47.131c-.095 4.106-.095 15.624.047 17.7.141 2.454.849 3.21 3.021 3.21h2.502v3.729s-4.53-.095-7.08-.095-7.128.095-7.128.095c.048-.378.048-3.353 0-3.729h2.03c2.124 0 2.832-.66 2.973-3.21.143-2.359.143-16.898 0-19.448-.094-1.84-.99-2.643-2.689-2.643h-2.219v-3.634c3.257.094 10.007.094 13.264 0 1.935 4.484 6.278 13.547 9.11 19.258 2.88-6.042 6.845-14.774 8.731-19.258 2.976.094 9.395.094 12.368 0v3.634h-2.36c-1.699 0-2.549.944-2.644 2.785-.141 2.313-.141 16.899 0 19.542.095 1.888.614 2.974 2.785 2.974h2.219v3.729s-5.522-.095-8.685-.095c-3.116 0-8.687.095-8.687.095v-3.729h2.267c2.124 0 2.69-1.18 2.784-3.021.095-2.219.095-13.359.048-17.938-3.068 6.184-8.071 16.993-10.338 22.186h-1.841c-2.312-5.192-7.458-16.095-10.478-22.137M253.915 68.041h2.22c2.028 0 2.548-.52 2.595-2.124.142-3.067.142-18.174 0-20.722-.094-1.841-.755-2.455-2.455-2.455h-2.359v-3.634s5.477.142 8.497.142c3.021 0 7.882-.142 8.449-.142v3.634h-2.36c-1.699 0-2.313.614-2.454 2.455-.19 2.548-.143 17.655 0 20.722.047 1.604.613 2.124 2.642 2.124h2.173v3.729s-5.428-.093-8.449-.093-8.497.093-8.497.093v-3.729zM283.195 46.044c0 2.879 2.454 3.918 8.826 4.673 8.874.991 12.792 4.153 12.792 10.903 0 6.892-4.908 10.951-12.98 10.951-3.824 0-6.372-.802-9.063-2.312-2.076-1.228-2.737.095-2.974 1.746-.236-.047-2.879-.047-3.116 0 .521-3.398.709-7.835.426-11.14.283.047 2.785.047 3.068 0 1.416 5.476 5.098 8.261 11.612 8.261 4.956 0 7.788-1.746 7.788-4.909 0-3.305-3.022-4.53-9.912-5.287-7.978-.897-11.801-4.247-11.801-10.054s3.823-10.668 12.036-10.668c3.822 0 6.419 1.086 7.647 1.7 2.36 1.18 2.737.236 2.973-1.18.236.047 2.784.047 3.021 0-.661 2.737-.802 7.363-.52 10.291h-2.928c-1.416-5.099-4.672-7.365-9.864-7.365-4.86 0-7.031 1.935-7.031 4.39M328.094 47.934h3.066c-.093 2.736-.188 3.774-.188 7.222 0 3.493.048 5.05.188 7.458h-2.973v-.851c-.094-3.729-1.368-5.285-5.428-5.285h-1.841c0 3.917.047 7.599.142 8.921.094 1.98 1.133 2.642 2.642 2.642h5.761c5.286 0 6.938-2.501 6.938-9.062.423.048 3.445.048 3.87 0-.33 3.492-.472 8.826-.472 12.934-2.454-.189-7.363-.237-9.582-.237h-12.935c-2.548 0-8.354.096-8.544.096.047-.377.047-3.353 0-3.73h2.125c2.17 0 2.691-1.132 2.832-2.925.189-2.549.189-16.947 0-19.684-.141-2.029-.849-2.69-2.549-2.69h-2.408c.047-.378.047-3.257 0-3.635.755 0 7.128.095 8.733.095 1.604 0 6.373-.048 12.271-.048 2.031 0 8.12 0 10.338-.283-.282 3.446-.329 8.685-.282 12.084h-3.54c0-6.608-1.89-8.119-6.75-8.119h-5.947c-1.7 0-2.408.897-2.502 2.454-.095 1.322-.142 4.863-.142 8.591h1.936c3.68 0 5.239-1.227 5.239-4.957v-.991z"/><path clip-path="url(#b)" fill="#0D395C" d="M12.144 62.426l20.823 12.021v-2.038c0-.357-.192-.689-.503-.871L11.641 59.517v2.038c0 .358.192.689.503.871M12.144 52.989L32.967 65.01v-2.038c0-.358-.192-.69-.503-.871L11.641 50.08v2.038c0 .36.192.691.503.871M12.144 43.553l20.823 12.022v-2.038c0-.359-.192-.691-.503-.871L11.641 40.644v2.038c0 .36.192.691.503.871"/><path clip-path="url(#b)" fill="#0D395C" d="M75.166 35.223v34.268L39.85 89.881v-3.224L72.581 67.76V36.716l2.585-1.493zM39.85 48.863l15.542-8.973v4.437a5.429 5.429 0 0 0-4.286 5.3v23.06l2.267-1.311V49.627a3.157 3.157 0 0 1 3.153-3.153 3.156 3.156 0 0 1 3.152 3.153v18.109l2.268-1.31v-16.8c0-2.6-1.84-4.777-4.287-5.3V38.58l12.654-7.306V66.45L39.85 84.038V48.863zm-.653-29.375c-2.199 0-3.981.904-3.981 2.019 0 1.114 1.782 2.018 3.981 2.018a7.4 7.4 0 0 0 1.561-.161l13.556 8.361-14.297 8.255a2.6 2.6 0 0 1-2.601 0L5.712 21.675 37.416 3.369a2.604 2.604 0 0 1 2.601 0l31.704 18.306-15.176 8.762-13.536-8.349c.11-.184.17-.379.17-.581 0-1.115-1.783-2.019-3.982-2.019m-1.614 64.55L7.12 66.451V31.275l30.463 17.588v35.175zm0 5.843L2.267 69.492V35.224l2.585 1.492V67.76l32.731 18.897v3.224zm34.998-61.614a.531.531 0 0 0-.797-.46l-14.125 8.155v-3.55l17.734-10.239a.576.576 0 0 0 0-.997L38.716 0 2.04 21.176a.576.576 0 0 0 0 .997L38.717 43.35l16.675-9.628v3.549l-16.675 9.628L5.649 27.807a.532.532 0 0 0-.797.46v5.831L.797 31.756a.531.531 0 0 0-.797.46v37.526c0 .655.349 1.261.917 1.588L37.8 92.624a1.83 1.83 0 0 0 1.833 0L76.516 71.33c.568-.328.917-.933.917-1.588V32.216a.531.531 0 0 0-.797-.46l-4.055 2.341v-5.83z"/><path clip-path="url(#b)" fill="#0D395C" d="M56.526 49.229c-.626 0-1.134.509-1.134 1.135v19.848l2.268-1.31V50.363c0-.626-.508-1.134-1.134-1.134"/></svg>